<svg width="33" height="32" viewBox="0 0 33 32" fill="none" xmlns="http://www.w3.org/2000/svg">
<g id="Vector">
<path d="M26.852 30.9452C28.9723 30.126 30.6485 28.4497 31.4677 26.3295C31.8554 25.3251 32.1269 24.1792 32.2006 22.503C32.218 22.1104 32.2316 21.7808 32.2442 21.4502V10.2509C32.2355 10.0172 32.2258 9.7739 32.2132 9.50051C32.1395 7.8243 31.8681 6.67257 31.4803 5.67402C31.0799 4.61439 30.4633 3.66528 29.6567 2.8771C28.8675 2.07535 27.9126 1.45295 26.8646 1.05934C25.8603 0.671557 24.7143 0.400106 23.0381 0.326427C21.3493 0.245961 20.8132 0.227539 16.5311 0.227539C12.2489 0.227539 11.7118 0.24596 10.0298 0.31964C8.35358 0.393319 7.20186 0.66477 6.2033 1.05256C5.14367 1.45295 4.19456 2.06953 3.40542 2.8771C2.60464 3.66625 1.98224 4.62117 1.58766 5.6682C1.19987 6.67257 0.928424 7.81848 0.854744 9.49469C0.774278 11.1835 0.755859 11.7196 0.755859 16.0027C0.755859 20.2858 0.774278 20.822 0.847957 22.504C0.921637 24.1802 1.19309 25.3329 1.58185 26.3305C1.98224 27.3901 2.60464 28.3392 3.40542 29.1284C4.19456 29.9291 5.14949 30.5525 6.19749 30.9461C7.20186 31.3339 8.34777 31.6054 10.024 31.679C11.706 31.7537 12.2421 31.7721 16.5252 31.7721C20.8084 31.7721 21.3435 31.7537 23.0265 31.679C24.7027 31.6054 25.8535 31.3329 26.852 30.9452ZM16.5369 28.9364C12.3274 28.9364 11.8223 28.918 10.1646 28.8443C8.62407 28.7765 7.79226 28.5176 7.23773 28.3024C6.55425 28.0494 5.93185 27.649 5.42579 27.1255C4.90228 26.6136 4.50092 25.998 4.24886 25.3135C4.03363 24.759 3.77478 23.9204 3.70692 22.3867C3.63324 20.7231 3.61482 20.2238 3.61482 16.0144C3.61482 11.8049 3.63324 11.2998 3.70692 9.64302C3.77478 8.10254 4.03363 7.27073 4.24886 6.7162C4.50189 6.03175 4.90228 5.40935 5.43258 4.90426C5.94349 4.38074 6.56007 3.98035 7.24354 3.72732C7.79808 3.5121 8.63667 3.25325 10.1704 3.18539C11.834 3.11171 12.3333 3.09329 16.5417 3.09329C20.7502 3.09329 21.2562 3.11171 22.914 3.18539C24.4545 3.25325 25.2863 3.5121 25.8409 3.72732C26.5243 3.98035 27.1467 4.38074 27.6518 4.90426C28.1753 5.41614 28.5767 6.03175 28.8288 6.7162C29.044 7.27073 29.3028 8.10835 29.3707 9.64302C29.4444 11.3066 29.4628 11.8059 29.4628 16.0144C29.4628 20.2228 29.4444 20.7163 29.3707 22.3799C29.3028 23.9204 29.044 24.7522 28.8288 25.3067C28.2985 26.6814 27.2078 27.7721 25.8341 28.3014C25.2795 28.5166 24.4419 28.7755 22.9073 28.8434C21.2436 28.917 20.7453 28.9364 16.5369 28.9364Z" fill="#2B4459"/>
<path d="M16.5314 7.89805C12.0573 7.89805 8.4276 11.5277 8.4276 16.0018C8.4276 20.4759 12.0573 24.1056 16.5314 24.1056C21.0055 24.1056 24.6342 20.4759 24.6342 16.0018C24.6342 11.5277 21.0045 7.89805 16.5314 7.89805ZM16.5314 21.2573C13.6288 21.2573 11.2749 18.9035 11.2749 16.0009C11.2749 13.0983 13.6288 10.7444 16.5314 10.7444C19.434 10.7444 21.7878 13.0983 21.7878 16.0009C21.7878 18.9035 19.434 21.2573 16.5314 21.2573Z" fill="#2B4459"/>
<path d="M26.8445 7.57766C26.8445 6.53257 25.9971 5.68623 24.9521 5.68623C23.907 5.68623 23.0606 6.53354 23.0606 7.57766C23.0606 8.62178 23.9079 9.4691 24.9521 9.4691C25.9962 9.4691 26.8445 8.62275 26.8445 7.57766Z" fill="#2B4459"/>
</g>
</svg>
