<svg width="27" height="26" viewBox="0 0 27 26" fill="none" xmlns="http://www.w3.org/2000/svg">
<path id="Vector" d="M6.41036 25.4225V8.65874H0.843279V25.4225H6.41036ZM3.62798 6.37032C5.56893 6.37032 6.77731 5.08306 6.77731 3.47434C6.74097 1.82897 5.56893 0.577637 3.6649 0.577637C1.75955 0.577637 0.515137 1.82897 0.515137 3.4742C0.515137 5.08291 1.72307 6.37017 3.59151 6.37017L3.62798 6.37032ZM9.49182 25.4225H15.0585V16.0619C15.0585 15.5615 15.0948 15.0599 15.2419 14.7025C15.6441 13.701 16.5601 12.6644 18.0984 12.6644C20.1123 12.6644 20.9184 14.2015 20.9184 16.4553V25.4225H26.4849V15.8107C26.4849 10.6618 23.7388 8.26572 20.0762 8.26572C17.0734 8.26572 15.7546 9.94557 15.0218 11.0897H15.0589V8.65932H9.49211C9.56477 10.232 9.49182 25.4225 9.49182 25.4225Z" fill="#2B4459"/>
</svg>
